<svg width="72" height="72" viewBox="0 0 72 72" fill="none" xmlns="http://www.w3.org/2000/svg">
<path d="M34.4958 52.873V43.512H26.9707C28.4267 47.393 31.0288 50.67 34.4958 52.873ZM25.6437 36.12C25.6437 37.629 25.8018 39.098 26.0968 40.512H34.4958V31.512H26.1497C25.8237 33 25.6437 34.543 25.6437 36.12ZM37.4958 19.162V28.512H44.9448C43.4648 24.64 40.8748 21.345 37.4958 19.162ZM29.7148 19.143C25.2768 20.82 21.6748 24.206 19.7048 28.511H23.8688C25.0548 24.908 27.0638 21.686 29.7148 19.143ZM22.6437 36.12C22.6437 34.55 22.8027 33.01 23.0887 31.512H18.6468C18.2758 32.953 18.0578 34.456 18.0578 36.013C18.0578 37.569 18.2768 39.071 18.6478 40.512H23.0457C22.7897 39.088 22.6437 37.622 22.6437 36.12ZM19.7108 43.512C21.6578 47.752 25.1927 51.1 29.5547 52.791C26.9107 50.263 24.9398 47.086 23.7948 43.512H19.7108ZM27.0477 28.512H34.4958V19.162C31.1178 21.345 28.5287 24.64 27.0477 28.512ZM49.3498 36.12C49.3498 37.622 49.2038 39.088 48.9468 40.512H53.3438C53.7147 39.071 53.9338 37.569 53.9338 36.013C53.9338 34.456 53.7157 32.953 53.3457 31.512H48.9048C49.1898 33.01 49.3498 34.55 49.3498 36.12ZM42.2788 19.144C44.9288 21.686 46.9388 24.909 48.1248 28.511H52.2868C50.3178 24.207 46.7168 20.821 42.2788 19.144ZM70.1898 17.678C68.6698 9.519 62.2638 3.28 54.2588 1.759C48.1748 0.561 42.0087 0 36.0057 0C29.8407 0 23.6758 0.561 17.5928 1.759C9.42675 3.28 3.26275 9.599 1.74075 17.598C-0.58025 29.756 -0.58025 42.156 1.74075 54.234C3.26175 62.474 9.58575 68.633 17.5928 70.154C23.6758 71.432 29.8407 71.993 36.0057 71.993C42.1697 71.993 48.2528 71.432 54.3378 70.233C62.5048 68.633 68.6698 62.394 70.1898 54.315C72.5918 42.155 72.5918 29.756 70.1898 17.678ZM35.9958 57.012C24.4508 57.012 15.0578 47.592 15.0578 36.013C15.0578 24.415 24.4508 14.981 35.9958 14.981C47.5408 14.981 56.9338 24.416 56.9338 36.013C56.9338 47.592 47.5408 57.012 35.9958 57.012ZM42.4378 52.791C46.7988 51.099 50.3338 47.751 52.2808 43.512H48.1987C47.0537 47.086 45.0818 50.262 42.4378 52.791ZM46.3498 36.12C46.3498 34.543 46.1698 33 45.8438 31.512H37.4958V40.512H45.8958C46.1908 39.098 46.3498 37.629 46.3498 36.12ZM37.4958 43.512V52.874C40.9638 50.67 43.5658 47.395 45.0228 43.512H37.4958Z" fill="#006961"/>
</svg>
